<svg id="Layer_1" data-name="Layer 1" xmlns="http://www.w3.org/2000/svg" viewBox="0 0 250 100"><defs><style>.cls-1{fill:#212222;}.cls-2{fill:#00ae78;}</style></defs><title>Hashr-Dark</title><path class="cls-1" d="M12.67,79.35V25.74l12.69-.6V40.9a17.79,17.79,0,0,1,6.2-.9c5,0,9,1.42,12.1,4.18s4.63,6.72,4.63,11.88V79.28H35.59V57.1c0-4.4-2.09-6.57-6.2-6.57a10.31,10.31,0,0,0-4,.75v28Z"/><path class="cls-1" d="M88.39,77c-4.56,2.09-10.23,3.14-17.1,3.14q-7.73,0-11.88-3.36a10.7,10.7,0,0,1-4.1-8.74,10.26,10.26,0,0,1,4.1-8.51c2.77-2.17,6.43-3.29,11.06-3.29a40,40,0,0,1,5.52.37v-.59q0-5.61-6.49-5.6a27.29,27.29,0,0,0-9.86,1.71l-2.17-9.85A36.37,36.37,0,0,1,71,40c5.75,0,10.08,1.5,13,4.41s4.41,7.09,4.41,12.47V77ZM72.63,71.29A8.39,8.39,0,0,0,76,70.77V64.42A17.34,17.34,0,0,0,72.26,64a5.19,5.19,0,0,0-3.14.9,3.07,3.07,0,0,0-1.19,2.69c0,2.46,1.57,3.65,4.7,3.65Z"/><path class="cls-1" d="M122.52,52.55c-4.71-1.42-8.29-2.17-10.76-2.17s-3.88.52-3.88,1.64a1.68,1.68,0,0,0,1,1.57A23.79,23.79,0,0,0,113.11,55c4.63,1.2,7.91,2.69,9.85,4.56s2.92,4.55,2.92,8.06q0,6.16-4.48,9.41c-3,2.16-7,3.21-12,3.21a35.41,35.41,0,0,1-14-2.61l1.64-10.31a32,32,0,0,0,12.1,2.47c2.91,0,4.41-.68,4.41-2a1.89,1.89,0,0,0-1.12-1.79,41.72,41.72,0,0,0-5.83-1.79Q101,62.82,98.32,60a10.52,10.52,0,0,1-2.69-7.61q0-5.94,4-9.19c2.69-2.16,6.42-3.28,11.2-3.28A36,36,0,0,1,124,42.24Z"/><path class="cls-1" d="M132.38,79.35V25.74l12.69-.6V40.9a17.79,17.79,0,0,1,6.2-.9c5,0,9,1.42,12.1,4.18S168,50.9,168,56.06V79.28H155.3V57.1c0-4.4-2.09-6.57-6.2-6.57a10.31,10.31,0,0,0-4,.75v28Z"/><path class="cls-1" d="M177.26,43a37.32,37.32,0,0,1,15.68-3.06,26.63,26.63,0,0,1,7.91.89l-1.79,10.31a13.86,13.86,0,0,0-5-.75,11,11,0,0,0-4,.67V79.28h-12.7V43Z"/><path class="cls-2" d="M228.11,19.91c0,2.18-.15,4.68-.39,7.42,2.35-1,4.69-2,7-2.81l2.57,8.2c-2.57.78-5.08,1.41-7.5,2a66.53,66.53,0,0,1,4.93,6l-7,5c-1.25-1.8-2.65-3.91-4.14-6.33a63.27,63.27,0,0,1-4,6.25l-7-5.08c1.49-2,3.05-3.9,4.77-5.86-2.89-.7-5.31-1.33-7.19-2L213,24.59a71.05,71.05,0,0,1,6.87,2.58c-.23-2.73-.39-5.23-.39-7.42Z"/></svg>